HIERARCHY
ROOT root
{
	OFFSET 0.000000 0.000000 0.000000
	CHANNELS 6 Xposition Yposition Zposition Zrotation Yrotation Xrotation
	JOINT lhip
	{
		OFFSET 0.058581 -0.082280 -0.017664
		CHANNELS 3 Zrotation Yrotation Xrotation
		JOINT lknee
		{
			OFFSET 0.043451 -0.386469 0.008037
			CHANNELS 3 Zrotation Yrotation Xrotation
			JOINT lankle
			{
				OFFSET -0.014790 -0.426874 -0.037428
				CHANNELS 3 Zrotation Yrotation Xrotation
				JOINT ltoe
				{
					OFFSET 0.041054 -0.060286 0.122042
					CHANNELS 3 Zrotation Yrotation Xrotation
					End Site
					{
						OFFSET 0.000000 0.000000 0.000000
					}
				}
			}
		}
	}
	JOINT rhip
	{
		OFFSET -0.060310 -0.090513 -0.013543
		CHANNELS 3 Zrotation Yrotation Xrotation
		JOINT rknee
		{
			OFFSET -0.043257 -0.383688 -0.004843
			CHANNELS 3 Zrotation Yrotation Xrotation
			JOINT rankle
			{
				OFFSET 0.019056 -0.420046 -0.034562
				CHANNELS 3 Zrotation Yrotation Xrotation
				JOINT rtoe
				{
					OFFSET -0.034840 -0.062106 0.130323
					CHANNELS 3 Zrotation Yrotation Xrotation
					End Site
					{
						OFFSET 0.000000 0.000000 0.000000
					}
				}
			}
		}
	}
	JOINT lowerback
	{
		OFFSET 0.004439 0.124404 -0.038385
		CHANNELS 3 Zrotation Yrotation Xrotation
		JOINT upperback
		{
			OFFSET 0.004488 0.137956 0.026820
			CHANNELS 3 Zrotation Yrotation Xrotation
			JOINT chest
			{
				OFFSET -0.002265 0.056032 0.002855
				CHANNELS 3 Zrotation Yrotation Xrotation
				JOINT lowerneck
				{
					OFFSET -0.013390 0.211636 -0.033468
					CHANNELS 3 Zrotation Yrotation Xrotation
					JOINT upperneck
					{
						OFFSET 0.010113 0.088937 0.050410
						CHANNELS 3 Zrotation Yrotation Xrotation
						End Site
						{
							OFFSET 0.000000 0.000000 0.000000
						}
					}
				}
				JOINT lclavicle
				{
					OFFSET 0.071702 0.114000 -0.018898
					CHANNELS 3 Zrotation Yrotation Xrotation
					JOINT lshoulder
					{
						OFFSET 0.122921 0.045205 -0.019046
						CHANNELS 3 Zrotation Yrotation Xrotation
						JOINT lelbow
						{
							OFFSET 0.255332 -0.015649 -0.022946
							CHANNELS 3 Zrotation Yrotation Xrotation
							JOINT lwrist
							{
								OFFSET 0.265709 0.012698 -0.007375
								CHANNELS 3 Zrotation Yrotation Xrotation
								End Site
								{
									OFFSET 0.000000 0.000000 0.000000
								}
							}
						}
					}
				}
				JOINT rclavicle
				{
					OFFSET -0.082954 0.112472 -0.023707
					CHANNELS 3 Zrotation Yrotation Xrotation
					JOINT rshoulder
					{
						OFFSET -0.113228 0.046853 -0.008472
						CHANNELS 3 Zrotation Yrotation Xrotation
						JOINT relbow
						{
							OFFSET -0.260127 -0.014369 -0.031269
							CHANNELS 3 Zrotation Yrotation Xrotation
							JOINT rwrist
							{
								OFFSET -0.269108 0.006794 -0.006027
								CHANNELS 3 Zrotation Yrotation Xrotation
								End Site
								{
									OFFSET 0.000000 0.000000 0.000000
								}
							}
						}
					}
				}
			}
		}
	}
}
MOTION
Frames: 14
Frame Time: 0.033333
-0.438838 0.824140 1.148798 -91.273225 -0.600591 76.596834 8.024419 5.337297 4.546112 -20.899017 -1.479208 103.443690 -3.547986 -5.355936 -18.956580 0.000000 -0.000000 0.000000 2.681526 -1.201855 -7.194564 1.504842 0.212774 35.169538 -4.090448 -2.083013 -7.086810 0.000000 -0.000000 0.000000 -0.192265 -1.747952 15.115410 3.183234 -1.470231 1.126193 -1.193670 -1.634260 3.899608 1.130952 2.490927 16.823954 -3.179544 3.637891 23.663925 -28.240001 6.853771 1.904539 -58.134102 -0.843181 1.902446 7.930093 -24.615118 6.109332 0.408072 -7.871272 3.292192 27.985684 -1.037594 2.490389 55.239051 5.172307 4.558394 -15.695196 24.112549 -9.433879 3.860070 5.056023 -6.243428 
-0.450608 0.824938 1.164684 -92.219747 -0.847298 78.122387 7.981179 4.803329 4.278999 -17.855982 -0.542207 100.236241 -3.773397 -6.215084 -17.804312 0.000000 -0.000000 0.000000 2.996659 0.036531 -4.549238 1.229958 1.054158 29.027199 -2.756370 -2.414797 -6.568931 0.000000 -0.000000 0.000000 -0.426953 -1.190524 13.686325 3.271768 -1.581379 1.999817 -0.932969 -1.722343 3.214559 0.825476 2.528366 17.563836 -3.109034 3.702995 22.093986 -27.509469 6.958870 2.570340 -58.802778 -1.200798 2.140791 7.794478 -25.941753 7.067933 -2.221242 -7.780235 4.580356 27.633402 -2.065113 3.205551 55.457061 4.296465 4.923496 -16.432099 27.398897 -8.859946 4.755900 4.935661 -6.029473 
-0.460288 0.824698 1.180060 -92.293218 -1.163405 79.720404 7.012230 4.463011 1.906935 -17.002625 1.118041 99.776457 -1.801822 -3.144741 -16.603755 0.000000 -0.000000 0.000000 2.922423 -0.374083 -2.623119 0.489704 2.642375 22.997174 -2.264453 -1.443677 -1.813107 0.000000 -0.000000 0.000000 -0.390614 -0.899769 12.709024 3.115806 -2.327032 1.553804 -0.849234 -1.601740 2.981040 -1.075440 1.606555 17.700074 -1.863576 5.261028 21.156460 -26.909427 6.358687 3.586136 -58.923434 -1.043447 1.724542 7.215666 -27.169166 6.384648 -1.079225 -7.295938 1.529597 26.722236 -2.356490 4.284845 56.203483 3.140905 5.167419 -16.781513 29.726599 -8.042624 4.586913 5.363719 -6.271264 
-0.468029 0.824173 1.191185 -91.963834 -1.520460 80.877336 6.244785 3.432093 -0.942664 -13.487482 3.065944 101.690701 -2.307322 -0.301767 -16.035666 0.000000 -0.000000 0.000000 2.641750 -0.261203 -0.279570 -0.051199 3.363771 17.237538 -1.294614 -1.950752 1.196627 0.000000 -0.000000 0.000000 -0.063580 -0.608683 12.751854 2.719270 -2.956073 0.825694 -0.967302 -1.584067 2.692626 -2.464808 0.622567 17.288356 -0.810451 6.496451 20.013925 -26.493117 6.274596 3.801739 -58.206033 -1.427742 1.269404 6.413326 -27.937753 6.174207 -1.696005 -7.481754 -0.116299 25.619598 -2.795711 4.653581 56.971721 2.239514 5.965462 -16.638167 30.714800 -7.686198 3.810978 5.300834 -5.693931 
-0.474644 0.823275 1.197136 -90.952121 -1.852233 81.635533 5.560456 2.590425 -4.497248 -11.056741 4.475947 105.302686 -0.778282 1.577111 -16.921824 0.000000 -0.000000 0.000000 2.111285 -0.980046 1.482893 -0.316877 4.036311 12.972170 -0.490904 -2.718557 3.614082 0.000000 -0.000000 0.000000 0.339393 -0.113255 13.020331 2.371525 -3.577170 0.466901 -1.157285 -1.786111 2.710979 -3.147434 -0.636242 15.979192 0.043433 7.367007 20.298392 -26.613080 5.497253 3.926723 -56.869122 -2.268266 1.214338 6.369981 -28.710316 5.753298 -1.145517 -8.036307 0.270990 24.922039 -2.822455 4.333212 57.209397 1.468200 6.443833 -16.138482 30.552479 -8.212052 4.585972 5.598899 -5.357454 
-0.479856 0.822108 1.199162 -90.198963 -2.190291 81.826138 4.908471 1.737328 -8.362665 -10.415578 6.461061 109.590292 -0.137066 2.011293 -18.734602 0.000000 -0.000000 0.000000 1.613499 -1.290061 2.740773 -0.081082 3.906981 11.119710 -0.762816 -4.390664 4.111296 0.000000 -0.000000 0.000000 0.827034 0.586432 14.316687 2.052715 -3.663902 -0.466780 -1.361820 -1.858752 3.219180 -3.575391 -1.967506 14.456939 0.741183 7.161722 20.965562 -26.598137 4.715265 3.706960 -55.706170 -3.348706 1.308653 6.497215 -29.734713 5.329317 0.094706 -8.265437 0.259341 24.366912 -2.722640 3.628064 57.269540 0.884934 6.770392 -15.764260 29.757123 -7.758383 5.081420 5.631221 -4.904800 
-0.486344 0.820946 1.199113 -89.274935 -2.310271 81.674894 4.633391 0.642989 -12.311443 -9.063128 8.023528 113.173817 1.194243 2.743845 -20.513148 0.000000 -0.000000 0.000000 1.603765 -1.825479 4.270813 -0.493436 4.296476 9.198524 -1.115445 -5.461410 4.426849 0.000000 -0.000000 0.000000 1.103240 1.169659 15.591526 2.011901 -3.837445 -1.324473 -1.291806 -1.795743 3.646015 -3.970023 -3.268288 14.126886 1.131666 7.244503 21.449126 -27.244577 4.276920 4.538940 -54.637805 -4.627960 0.719291 8.191970 -32.160611 3.388664 -0.546533 -8.194850 0.683321 24.327296 -1.776860 3.405748 56.646390 0.874935 6.577006 -15.590598 27.124291 -8.023055 6.732167 6.070642 -3.248481 
-0.491113 0.818983 1.198241 -88.779160 -2.528526 81.613830 4.381190 -0.318867 -16.776607 -7.335513 9.587092 115.295193 2.558258 4.155960 -22.324094 0.000000 -0.000000 0.000000 1.305525 -2.534486 4.719235 -0.375894 4.515237 9.179080 -1.296797 -6.673829 3.937009 0.000000 -0.000000 0.000000 1.210802 1.944471 16.299280 2.052774 -3.814805 -1.764393 -1.184760 -1.657797 4.419525 -4.113820 -4.221727 13.710990 1.168223 6.848916 22.212592 -27.491279 4.050760 4.486292 -54.248921 -5.876646 0.923332 9.705942 -34.106983 1.418625 0.685240 -7.774894 -0.800072 24.414869 -0.715832 3.133916 55.663512 1.914916 6.746855 -15.150908 23.454226 -8.539630 7.455392 5.685177 -2.413150 
-0.496362 0.816751 1.198076 -88.189080 -2.703551 81.395486 4.105175 -1.272952 -20.920830 -5.524726 10.355047 115.184930 3.110824 6.144070 -23.050486 0.000000 -0.000000 0.000000 1.213445 -2.031648 5.301954 -0.786546 4.734282 9.165436 -0.951097 -7.266434 4.067242 0.000000 -0.000000 0.000000 1.174801 2.555697 17.040866 2.268529 -3.600048 -2.114028 -0.963896 -1.102310 5.090869 -4.129289 -4.897229 13.876036 1.143809 5.931650 22.589001 -27.236492 4.178522 3.570201 -54.705468 -6.847097 2.079139 10.207309 -35.218637 0.033401 2.809204 -7.162135 -3.904536 24.804435 -0.596957 2.658782 54.400199 3.069329 6.759149 -14.545635 20.248021 -9.701499 6.771160 4.349664 -2.553592 
-0.502455 0.813994 1.198142 -87.905994 -2.897073 81.095412 3.668369 -2.581992 -24.086578 -4.461581 11.265367 112.111764 3.346182 6.324334 -22.629419 0.000000 -0.000000 0.000000 1.265299 -1.333498 6.047069 -1.394370 5.265150 9.158833 -0.399184 -7.627317 2.066192 0.000000 -0.000000 0.000000 1.184267 3.305853 17.478395 2.440531 -3.322473 -1.785588 -0.927759 -0.878525 5.177802 -3.681344 -5.010598 14.151408 0.877217 4.972986 22.821083 -26.901434 4.446791 3.662493 -54.860307 -7.302420 3.072161 11.182946 -37.285404 -0.143042 1.913365 -7.464910 -4.669528 25.010024 -0.348410 2.472125 54.272458 4.350235 6.682005 -15.374097 16.936220 -11.912125 6.733466 3.748202 -2.740209 
-0.508016 0.811537 1.198430 -87.544195 -2.963579 81.007812 3.131102 -3.150352 -26.657591 -5.150865 11.264448 106.048283 3.357366 5.621789 -21.033971 0.000000 -0.000000 0.000000 1.129199 -1.512571 6.407180 -1.563969 4.777972 9.320746 -0.535836 -7.558605 2.077169 0.000000 -0.000000 0.000000 1.399036 3.884192 17.791285 2.442088 -3.304634 -1.604753 -0.848687 -0.629693 5.254622 -3.497843 -5.045829 14.702945 1.237496 4.294258 22.396000 -26.699925 4.396480 3.676295 -54.670345 -6.956112 3.663138 11.156185 -39.624284 0.013221 2.419534 -7.368152 -4.753718 24.849060 0.054466 2.653331 54.416358 5.015511 6.097800 -15.875527 15.834832 -14.485856 4.941085 3.629691 -3.276534 
-0.513800 0.809219 1.199201 -87.492383 -3.004265 80.942043 2.464683 -3.298152 -27.485816 -6.510036 10.169605 96.756222 2.551642 4.674912 -19.156610 0.000000 -0.000000 0.000000 1.112992 -1.748545 6.868196 -1.889796 4.869150 9.104845 -0.774505 -7.450939 2.751953 0.000000 -0.000000 0.000000 1.616743 4.387010 18.153321 2.322134 -3.216796 -1.253145 -0.732877 -0.324698 4.926979 -3.589647 -5.050824 15.086367 1.829305 3.707759 22.294843 -26.679679 4.245454 3.650605 -54.152622 -6.069732 3.920804 10.560331 -41.085211 1.523699 1.019208 -8.181113 -3.584250 24.780405 0.351621 2.548457 54.525894 4.895156 5.568500 -16.315637 16.561005 -16.143177 4.181289 3.791922 -3.970171 
-0.519455 0.805710 1.199547 -87.779207 -3.234641 81.198342 1.564570 -3.737759 -26.690785 -6.888253 8.908981 84.796948 1.075577 4.761162 -14.654398 0.000000 -0.000000 0.000000 0.687478 -1.529343 7.104294 -1.895215 4.920456 8.806951 -0.393376 -7.599856 3.208041 0.000000 -0.000000 0.000000 1.876239 4.457325 17.769492 1.944755 -3.019376 -0.598498 -0.937111 -0.090202 4.911253 -3.283521 -4.788185 14.873112 1.960963 3.564156 22.343983 -27.169163 4.710627 3.134023 -53.241497 -5.500171 4.286999 9.519378 -41.552200 2.168911 -0.381293 -9.320351 -1.868876 25.038085 0.288232 2.567227 54.219545 5.360157 5.951070 -16.476764 18.244895 -17.273443 3.980524 4.843312 -3.458542 
-0.525522 0.802451 1.199483 -88.378677 -3.324663 81.683741 0.785538 -3.898839 -23.759758 -7.332873 7.320127 71.039088 -0.682716 3.381500 -12.690980 0.000000 -0.000000 0.000000 0.567845 -0.857003 7.107828 -1.772664 4.497215 8.882502 -0.396980 -8.146437 2.840268 0.000000 -0.000000 0.000000 1.912737 4.458468 16.988851 1.810683 -2.644564 0.287500 -1.027093 -0.014405 4.684186 -2.891460 -3.974620 15.036502 1.506993 2.938995 21.944733 -27.394228 5.392832 2.731014 -53.131527 -5.090069 4.819428 9.095505 -40.554660 1.845612 -1.164307 -9.093894 -0.858905 25.339112 0.047822 2.257171 53.782339 5.489318 7.233243 -16.931679 21.140769 -17.223992 4.033560 5.143320 -2.639356 
